<?xml version="1.0" standalone="no"?>
<!DOCTYPE svg PUBLIC "-//W3C//DTD SVG 20010904//EN"
 "http://www.w3.org/TR/2001/REC-SVG-20010904/DTD/svg10.dtd">
<svg version="1.0" xmlns="http://www.w3.org/2000/svg"
 width="864.000000pt" height="1080.000000pt" viewBox="0 0 864.000000 1080.000000"
 preserveAspectRatio="xMidYMid meet">

<g transform="translate(0.000000,1080.000000) scale(0.100000,-0.100000)"
fill="#000000" stroke="none">
<path d="M0 5400 l0 -5400 4320 0 4320 0 0 5400 0 5400 -2230 0 c-1937 0
-2230 -2 -2230 -14 0 -8 -10 -22 -22 -31 -21 -14 -23 -22 -20 -92 2 -43 8 -83
13 -89 6 -7 13 -77 16 -156 7 -168 2 -185 -77 -263 l-50 -49 -95 -4 c-52 -2
-105 -2 -117 1 -13 4 -45 27 -71 52 -50 47 -76 100 -83 170 -14 139 -33 284
-41 310 -5 16 -22 36 -39 45 -16 10 -29 25 -29 36 0 16 13 21 95 32 142 19
151 19 164 -1 9 -15 6 -22 -16 -41 -26 -20 -28 -28 -27 -86 1 -122 35 -335 62
-384 20 -38 52 -55 100 -56 84 0 136 73 123 177 -3 26 -13 109 -21 183 -9 74
-16 144 -16 155 0 30 -18 45 -55 45 -40 0 -46 21 -12 44 20 15 -164 16 -1970
16 l-1992 0 0 -5400z m4474 5278 c8 -18 24 -60 36 -93 12 -33 26 -68 31 -77 5
-10 9 -25 9 -33 0 -8 9 -32 20 -52 11 -21 20 -48 20 -60 0 -12 5 -25 10 -28
13 -8 49 34 50 57 0 9 5 20 11 23 6 4 29 44 51 89 87 177 109 203 142 167 12
-13 16 -65 22 -260 l7 -243 33 -14 c41 -17 48 -28 34 -54 -11 -20 -54 -28 -64
-11 -3 4 -31 11 -62 14 -68 7 -80 16 -64 47 9 16 9 29 2 45 -7 15 -7 26 0 33
7 7 6 16 -1 30 -6 11 -11 43 -11 71 0 28 -4 51 -8 51 -14 0 -32 -24 -32 -42 0
-11 -10 -29 -23 -41 -13 -12 -31 -47 -40 -77 -10 -31 -26 -61 -37 -68 -11 -7
-20 -19 -20 -27 0 -38 -56 16 -66 64 -3 14 -11 40 -18 56 -40 93 -57 125 -65
125 -8 0 -26 -65 -38 -139 -5 -28 -1 -37 23 -56 l28 -22 -32 -17 c-24 -12 -37
-14 -51 -6 -11 5 -40 10 -64 10 -53 0 -76 19 -52 44 9 9 23 16 31 16 8 0 14 7
14 15 0 8 4 23 10 33 13 23 32 108 35 157 1 22 9 60 18 85 8 25 21 81 27 125
7 44 14 83 17 88 2 4 15 7 29 7 18 0 28 -8 38 -32z m731 -73 c71 -14 122 -27
137 -35 10 -6 30 -10 46 -10 15 0 33 -5 40 -12 15 -15 16 -64 2 -73 -5 -3 -10
-15 -10 -26 0 -11 -7 -22 -15 -25 -21 -8 -46 15 -43 39 2 15 -7 24 -40 36 -42
15 -44 15 -58 -4 -8 -10 -14 -29 -14 -42 0 -13 -5 -32 -12 -42 -17 -28 -5 -45
45 -59 34 -10 50 -11 66 -2 18 9 23 7 32 -13 9 -19 7 -31 -5 -55 -9 -17 -16
-40 -16 -52 0 -30 -47 -28 -52 2 -3 25 -70 63 -93 54 -7 -2 -17 -33 -22 -68
-6 -35 -13 -70 -17 -79 -10 -24 17 -46 65 -54 37 -6 44 -4 73 24 18 17 35 31
38 31 3 0 11 -13 17 -29 11 -25 9 -33 -19 -75 -37 -55 -50 -57 -153 -22 -40
14 -94 28 -122 32 -27 3 -54 10 -60 14 -5 4 -18 9 -28 11 -16 4 -16 6 -2 27 9
12 25 22 36 22 17 0 24 11 20 33 -1 4 4 17 10 28 6 11 14 41 19 67 19 98 35
167 42 177 11 17 20 104 14 130 -4 14 -13 25 -21 25 -21 0 -19 38 3 42 9 2 31
0 47 -5 17 -4 39 -10 50 -12z m-2136 -162 c77 -89 102 -118 147 -173 24 -30
58 -69 74 -87 17 -18 30 -37 30 -42 0 -17 70 -71 93 -71 48 0 63 -42 20 -56
-10 -3 -43 -16 -73 -28 -31 -12 -61 -21 -68 -18 -7 2 -22 23 -34 45 -11 23
-33 55 -49 71 -24 25 -32 28 -64 22 -69 -13 -85 -26 -85 -65 0 -20 -3 -46 -6
-58 -5 -18 -1 -25 20 -33 15 -5 26 -17 26 -28 0 -18 -37 -42 -64 -42 -7 0 -33
-11 -57 -25 -24 -14 -51 -27 -59 -30 -8 -4 -47 -22 -86 -41 -79 -38 -96 -41
-114 -19 -10 12 -9 20 4 40 19 30 20 44 3 64 -8 9 -19 36 -26 61 -7 25 -33 84
-57 132 -24 48 -44 94 -44 101 0 20 -50 67 -71 67 -28 0 -31 15 -8 44 12 15
30 26 44 26 27 0 95 37 95 52 0 5 10 8 23 6 20 -3 22 -8 23 -73 0 -53 6 -79
22 -105 12 -20 28 -53 35 -75 13 -35 56 -132 89 -202 14 -29 34 -36 52 -18 8
8 19 15 25 15 22 0 31 42 31 144 0 59 4 108 10 111 6 4 10 70 10 164 0 87 3
161 7 164 16 17 44 3 82 -40z m2613 30 c9 -10 19 -34 23 -53 6 -35 17 -67 40
-125 7 -16 19 -48 28 -70 67 -178 71 -186 86 -183 10 2 21 22 28 53 7 28 16
57 21 65 5 9 13 30 17 48 3 18 11 32 16 32 16 0 10 70 -6 76 -17 7 -20 40 -4
50 9 5 72 -17 131 -47 10 -5 25 -9 33 -9 8 0 15 -4 15 -9 0 -5 3 -16 6 -25 5
-12 -1 -16 -22 -16 -38 -1 -56 -17 -72 -65 -12 -37 -45 -117 -78 -190 -7 -16
-16 -42 -20 -57 -3 -16 -10 -28 -14 -28 -5 0 -12 -14 -15 -32 -4 -18 -11 -39
-16 -48 -4 -8 -10 -23 -13 -32 -7 -23 -39 -23 -60 1 -9 10 -30 53 -47 96 -16
43 -33 83 -37 89 -3 6 -7 16 -8 21 -1 6 -13 40 -28 76 -14 36 -26 77 -26 91 0
28 -23 53 -40 43 -5 -3 -10 -14 -10 -23 0 -10 -6 -26 -14 -37 -7 -11 -17 -36
-21 -55 -4 -19 -13 -45 -21 -57 -18 -29 -18 -80 0 -90 8 -4 16 -17 18 -28 4
-29 -31 -31 -88 -6 -26 12 -51 21 -56 21 -6 0 -23 9 -39 21 -24 17 -27 24 -18
35 6 8 21 14 33 14 26 0 46 18 46 41 0 10 3 19 8 21 8 3 52 108 52 124 0 7 7
17 15 24 8 7 15 25 15 40 0 15 7 33 15 40 8 7 15 20 15 29 0 10 7 26 15 37 8
10 15 29 15 42 0 20 44 71 61 72 3 0 13 -8 21 -17z m538 -238 c13 -14 27 -25
32 -25 5 0 26 -11 48 -25 38 -24 39 -27 26 -48 -8 -12 -18 -63 -22 -114 -8
-106 -3 -111 60 -68 20 14 39 25 42 25 9 0 53 55 54 66 0 6 7 17 15 24 11 9
20 8 42 -8 15 -11 47 -29 71 -41 53 -27 56 -58 5 -53 -33 4 -117 -33 -211 -92
-71 -45 -92 -66 -122 -123 -14 -26 -30 -54 -37 -61 -17 -18 -16 -34 2 -58 31
-41 3 -84 -34 -50 -10 9 -23 16 -29 16 -7 0 -12 4 -12 8 0 4 -25 20 -55 36
-30 15 -59 36 -65 45 -13 25 6 41 39 35 22 -5 29 0 44 28 10 18 29 51 42 73
24 38 25 48 25 206 0 153 -2 167 -20 184 -15 14 -17 21 -9 32 17 20 43 16 69
-12z m-3794 -115 c35 -58 43 -100 20 -100 -7 0 -19 7 -27 16 -7 8 -25 22 -41
30 -62 32 -167 -27 -197 -110 -11 -31 -11 -46 0 -85 18 -64 63 -134 111 -173
38 -29 47 -32 114 -33 55 0 76 4 91 18 11 9 25 17 31 17 20 0 42 44 42 86 0
43 17 68 38 56 14 -9 42 -86 42 -116 0 -28 -49 -76 -125 -122 -55 -33 -68 -36
-157 -41 -88 -5 -99 -4 -123 16 -15 11 -33 21 -39 21 -15 0 -52 40 -101 110
-38 54 -39 57 -39 145 -1 89 0 91 39 150 22 33 49 64 60 70 11 5 36 21 55 35
65 47 119 70 154 67 12 -1 32 -23 52 -57z m4330 -230 c24 -22 55 -45 68 -51
46 -21 34 -79 -14 -66 -22 6 -43 -14 -123 -113 -28 -36 -55 -66 -59 -68 -5 -2
-8 -8 -8 -14 0 -9 -26 -43 -74 -98 -25 -29 -27 -51 -5 -81 27 -38 19 -64 -17
-55 -37 10 -184 145 -177 164 4 9 15 12 34 8 25 -5 34 1 81 60 29 35 77 94
106 129 28 35 52 67 52 69 0 3 14 25 31 49 26 37 29 48 20 65 -17 32 -13 42
15 42 17 0 42 -14 70 -40z m-4861 -39 c3 -5 0 -21 -7 -35 -10 -23 -8 -29 10
-49 12 -13 22 -26 22 -30 0 -3 17 -23 38 -44 20 -21 50 -58 67 -83 58 -88 126
-160 150 -160 13 0 27 5 30 10 10 16 25 1 25 -25 0 -16 -11 -29 -35 -44 -19
-11 -35 -25 -35 -31 0 -5 -5 -10 -12 -10 -7 0 -29 -16 -49 -36 -52 -51 -71
-42 -63 29 5 46 4 56 -12 68 -21 15 -84 94 -84 104 0 6 -98 127 -144 178 -21
23 -29 26 -45 17 -61 -32 -54 16 11 71 86 73 120 91 133 70z m3015 -256 c52
-9 109 -20 125 -25 17 -5 57 -16 90 -24 103 -25 209 -55 230 -64 11 -5 56 -24
100 -42 44 -18 101 -43 127 -56 26 -13 54 -24 62 -24 8 0 21 -6 28 -13 7 -7
49 -31 93 -53 107 -55 319 -194 468 -309 135 -103 408 -391 522 -550 83 -116
218 -324 246 -380 11 -22 24 -47 28 -55 5 -8 17 -33 26 -55 9 -22 22 -51 29
-65 44 -83 129 -317 152 -420 8 -36 19 -83 24 -105 33 -140 43 -193 57 -300
19 -144 29 -613 14 -665 -5 -19 -15 -86 -21 -149 -7 -63 -16 -124 -20 -135 -5
-12 -14 -55 -20 -96 -7 -41 -18 -95 -25 -120 -27 -94 -46 -156 -60 -190 -7
-19 -26 -69 -40 -110 -15 -41 -45 -112 -66 -158 -21 -46 -39 -85 -39 -87 0 -2
-14 -28 -32 -57 -17 -29 -42 -74 -55 -101 -46 -93 -234 -362 -348 -497 -53
-63 -346 -350 -357 -350 -5 0 -31 -17 -57 -38 -25 -21 -66 -51 -90 -67 -24
-17 -69 -47 -100 -68 -264 -178 -611 -329 -936 -407 -49 -12 -108 -26 -130
-32 -49 -13 -229 -36 -395 -49 -138 -11 -520 -3 -534 12 -6 5 -24 9 -41 9 -44
0 -215 26 -245 38 -14 5 -47 13 -74 16 -27 4 -58 11 -70 15 -11 5 -55 19 -96
32 -41 13 -93 34 -115 47 -82 47 -182 91 -255 112 -83 24 -243 100 -275 129
-11 11 -31 24 -45 30 -14 6 -63 38 -110 72 -47 33 -97 68 -111 77 -14 9 -53
41 -86 69 -33 29 -91 76 -128 103 -38 28 -75 61 -84 73 -8 12 -45 54 -83 92
-87 90 -162 176 -184 212 -10 15 -34 48 -54 73 -41 51 -110 154 -110 164 0 4
-5 12 -11 19 -33 37 -174 305 -234 447 -13 30 -30 69 -39 85 -9 17 -16 37 -16
46 0 9 -8 38 -19 65 -10 27 -28 83 -40 124 -12 41 -26 89 -31 105 -5 17 -14
66 -20 110 -7 44 -16 98 -22 120 -30 114 -42 256 -42 500 0 202 14 378 35 435
5 14 16 75 24 135 17 115 41 208 98 385 40 123 42 128 118 288 33 67 59 127
59 132 0 5 6 15 13 22 6 7 21 31 32 53 24 48 223 347 260 390 121 142 190 217
245 270 315 301 638 511 1035 674 88 36 357 110 490 135 110 21 1008 21 1135
1z m-3379 -55 c17 -10 18 -13 5 -39 l-15 -27 134 -137 c139 -142 176 -166 204
-133 8 9 20 16 27 16 7 0 20 12 28 27 12 24 12 31 -1 56 -16 32 -11 57 11 57
7 0 30 -18 50 -40 39 -43 46 -81 21 -102 -9 -7 -21 -19 -28 -26 -33 -36 -45
-48 -65 -62 -12 -8 -22 -18 -22 -22 0 -4 -24 -33 -54 -65 -39 -41 -58 -54 -71
-50 -13 6 -16 14 -11 40 6 32 1 39 -130 172 -150 154 -172 169 -210 155 -27
-11 -44 -6 -44 12 0 6 24 37 53 68 28 32 60 69 70 84 20 30 21 30 48 16z
m4442 -51 c4 -16 3 -18 -9 -8 -16 13 -19 29 -5 29 5 0 11 -9 14 -21z m1504
-148 c24 -34 43 -65 43 -69 0 -4 13 -20 29 -37 64 -65 101 -113 101 -132 0
-26 -67 -73 -103 -73 -32 0 -32 0 -11 44 13 26 14 37 5 47 -6 8 -20 26 -32 42
-27 36 -48 34 -89 -8 -19 -19 -38 -35 -43 -35 -4 0 -15 -7 -24 -16 -14 -13
-14 -19 -2 -41 14 -25 48 -63 84 -92 17 -13 15 -16 -16 -42 -19 -16 -38 -29
-42 -29 -5 0 -15 -7 -23 -15 -33 -32 -70 -2 -46 36 18 28 15 50 -10 76 -28 30
-51 29 -82 -2 -14 -14 -29 -25 -33 -25 -5 0 -31 -22 -57 -49 -48 -48 -49 -50
-36 -81 11 -27 11 -34 -3 -48 -16 -15 -19 -14 -47 13 -16 16 -30 33 -30 37 0
10 -5 16 -53 73 -43 50 -54 80 -31 89 8 3 25 -1 36 -9 22 -15 42 -9 72 21 9 9
40 33 69 55 28 21 68 53 87 70 52 45 148 119 155 119 3 0 18 11 32 24 22 21
25 30 20 62 -6 39 7 68 27 61 6 -2 30 -32 53 -66z m-4868 1 c-16 -26 -68 -59
-104 -67 -24 -6 -17 2 35 38 72 50 86 56 69 29z m-1286 -97 c50 -45 47 -70 -8
-70 -40 0 -85 -30 -85 -57 0 -16 61 -78 76 -78 7 0 14 -6 17 -12 8 -23 40 6
66 60 15 29 33 52 41 52 20 0 100 -75 100 -95 0 -11 -11 -15 -42 -15 -38 -1
-46 -5 -64 -34 l-21 -33 48 -42 c66 -57 98 -62 133 -21 26 31 29 53 11 93 -4
11 -3 23 3 29 14 14 62 1 62 -17 0 -8 4 -15 9 -15 5 0 16 -12 26 -26 23 -35 6
-73 -51 -121 -24 -19 -44 -40 -44 -46 0 -6 -7 -18 -16 -28 -9 -10 -24 -32 -33
-50 -18 -34 -58 -53 -81 -39 -9 6 -9 13 -1 28 10 19 5 27 -41 72 -29 28 -71
63 -93 78 -22 15 -66 47 -97 72 -120 94 -111 89 -136 72 -17 -11 -25 -12 -37
-2 -17 14 -8 34 45 96 70 82 90 106 90 111 0 14 55 73 69 73 9 0 33 -16 54
-35z m-406 -299 c4 -7 22 -20 39 -29 69 -35 67 -72 -4 -72 -33 0 -39 -4 -60
-45 l-24 -45 34 -29 c18 -15 53 -37 77 -48 l44 -20 23 28 c12 16 27 48 33 71
13 50 26 60 50 39 10 -9 22 -16 28 -16 6 0 22 -9 37 -21 43 -34 31 -69 -25
-69 -20 0 -68 -46 -69 -66 0 -11 50 -47 100 -72 14 -7 43 -24 65 -37 39 -23
40 -24 60 -6 30 28 64 36 71 16 7 -17 -2 -38 -36 -90 -21 -32 -50 -93 -50
-105 0 -3 -11 -13 -25 -20 -32 -17 -53 -1 -48 37 4 29 -15 45 -88 79 -15 7
-30 17 -33 23 -4 6 -13 11 -21 11 -7 0 -42 17 -76 38 -35 21 -84 49 -109 63
-25 13 -56 32 -69 41 -29 22 -74 23 -91 3 -18 -22 -54 -15 -58 10 -1 11 15 43
38 72 22 29 51 74 65 100 25 46 38 70 78 141 20 35 32 40 44 18z m6756 -128
c53 -21 96 -57 152 -130 48 -61 59 -192 23 -266 -58 -114 -261 -216 -346 -173
-9 5 -41 19 -70 32 -30 13 -64 35 -75 50 -49 61 -58 75 -64 99 -3 14 -11 31
-17 39 -6 7 -11 39 -11 71 0 32 5 64 11 71 6 8 14 27 18 42 10 43 82 113 145
143 31 15 63 30 71 35 29 15 104 9 163 -13z m339 -505 c10 -9 18 -23 18 -32 0
-9 14 -45 30 -79 39 -82 39 -102 1 -102 -16 0 -31 6 -35 15 -6 17 -28 19 -54
6 -9 -5 -39 -18 -67 -29 -27 -11 -84 -34 -125 -52 -41 -17 -82 -34 -90 -37
-24 -7 -50 -61 -50 -103 0 -55 47 -104 93 -97 57 10 111 25 162 45 28 11 83
32 123 47 69 27 72 29 72 60 0 45 24 64 50 40 11 -10 20 -28 20 -41 0 -12 11
-42 25 -65 40 -71 29 -99 -30 -74 -32 13 -41 11 -145 -28 -171 -65 -180 -67
-253 -67 -61 0 -79 4 -103 22 -76 58 -104 114 -104 207 0 67 1 70 44 118 46
51 97 80 231 133 142 56 144 57 138 80 -5 18 11 50 25 50 3 0 14 -7 24 -17z
m-6844 -206 c2 -15 -1 -27 -7 -27 -5 0 -12 -13 -16 -29 -9 -42 -41 -100 -71
-132 -25 -26 -27 -35 -29 -126 -1 -102 -13 -140 -59 -192 -49 -55 -172 -78
-239 -45 -40 20 -104 89 -123 132 -13 30 -17 32 -64 32 -40 0 -58 6 -94 33
-65 48 -109 158 -77 193 5 5 14 26 21 47 6 20 16 37 21 37 5 0 9 6 9 14 0 21
52 26 101 10 54 -19 69 -31 69 -55 0 -16 -8 -19 -51 -19 -69 0 -89 -12 -89
-56 0 -64 12 -74 90 -74 44 0 87 7 117 19 26 10 64 22 83 26 19 4 49 18 67 31
17 13 39 24 47 24 29 0 17 26 -19 43 -44 21 -59 21 -75 2 -14 -17 -29 -19 -50
-5 -12 7 -10 18 15 69 23 49 33 61 52 61 33 0 78 -25 129 -72 56 -51 73 -48
150 32 63 64 87 71 92 27z m7082 -492 c20 -24 3 -64 -46 -110 -24 -23 -44 -45
-44 -50 0 -9 -62 -89 -72 -93 -5 -2 -8 -8 -8 -14 0 -11 -42 -65 -85 -108 -40
-40 -33 -53 23 -45 26 4 52 10 57 15 6 4 43 11 84 15 80 8 111 25 111 62 0 28
25 30 40 4 5 -11 10 -38 10 -60 0 -22 5 -43 10 -46 6 -3 10 -22 10 -41 0 -48
-26 -57 -56 -19 -22 27 -25 29 -56 18 -18 -7 -69 -15 -113 -19 -44 -4 -84 -10
-90 -14 -5 -4 -44 -11 -85 -15 -41 -4 -83 -12 -94 -17 -10 -5 -33 -7 -51 -4
-39 8 -50 35 -26 66 9 12 34 45 56 74 22 28 45 59 50 67 28 44 74 106 113 150
23 27 42 54 42 60 0 12 -37 9 -150 -12 -93 -16 -119 -28 -126 -55 -8 -31 -42
-32 -48 -1 -3 12 -8 38 -11 57 -3 19 -8 49 -11 66 -8 41 19 54 51 24 22 -20
105 -29 105 -11 0 5 37 12 83 16 45 4 87 11 92 15 6 4 47 11 93 15 45 4 85 11
88 16 8 14 40 11 54 -6z m-7792 -361 c14 -4 22 -14 22 -29 0 -23 -17 -35 -51
-35 -10 0 -25 -13 -34 -29 -13 -26 -13 -33 0 -65 13 -32 20 -36 50 -36 26 0
41 7 58 27 99 119 149 149 231 140 72 -8 98 -24 139 -85 30 -45 35 -60 32
-100 -3 -46 -18 -94 -43 -139 -10 -18 -22 -23 -50 -23 -21 0 -42 4 -47 9 -6 5
-21 11 -35 13 -19 2 -25 9 -25 28 0 22 5 26 43 31 49 6 71 30 72 75 0 35 -44
84 -76 84 -12 0 -50 -29 -90 -69 -114 -114 -176 -135 -248 -86 -20 14 -41 25
-46 25 -22 0 -45 76 -44 147 0 62 4 76 24 98 24 25 67 32 118 19z m7893 -395
c4 -63 10 -126 14 -140 4 -16 3 -29 -4 -33 -6 -4 -11 -23 -11 -42 0 -19 -7
-51 -15 -71 -8 -19 -15 -42 -15 -49 0 -21 -86 -104 -108 -104 -10 0 -24 -6
-31 -12 -8 -9 -44 -13 -109 -13 -101 1 -134 13 -197 71 -55 52 -105 154 -92
188 4 9 2 26 -4 39 -6 13 -7 32 -2 45 5 13 5 62 1 109 -7 71 -6 89 6 101 18
18 46 9 53 -18 7 -28 23 -30 173 -26 74 3 168 5 208 5 51 1 72 5 72 14 0 20
31 58 43 54 8 -2 14 -45 18 -118z m-7487 -45 c13 -5 16 -24 16 -103 0 -57 -5
-108 -12 -124 -15 -32 -48 -37 -48 -7 0 35 -31 40 -253 40 -206 0 -215 -1
-220 -20 -3 -12 -14 -20 -25 -20 -18 0 -21 8 -24 78 -4 104 3 146 25 150 12 2
20 -4 24 -16 9 -35 64 -43 267 -40 199 3 195 2 210 51 6 18 15 21 40 11z m-28
-320 c25 -7 41 -38 50 -95 4 -21 11 -42 15 -45 13 -7 11 -91 -2 -133 -39 -124
-100 -195 -191 -223 -150 -48 -292 4 -367 136 -35 62 -50 283 -20 302 16 10
124 24 141 18 10 -3 18 -15 18 -28 0 -16 -9 -25 -35 -34 -21 -8 -40 -25 -50
-44 -17 -35 -20 -104 -5 -113 6 -3 10 -16 10 -29 0 -24 28 -54 70 -77 15 -8
55 -13 100 -12 85 1 149 24 191 70 45 49 75 162 48 178 -6 4 -8 13 -5 20 4 13
-23 45 -38 45 -4 0 -21 9 -37 21 -24 17 -27 24 -18 35 12 14 85 19 125 8z
m6978 -90 c9 -4 16 -18 16 -33 0 -20 7 -30 28 -38 15 -7 34 -17 42 -22 8 -5
22 -12 30 -15 8 -4 35 -20 60 -36 25 -16 74 -44 110 -61 36 -17 100 -52 143
-77 135 -79 118 -90 -278 -173 -27 -6 -54 -14 -60 -19 -5 -4 -34 -11 -63 -15
-44 -6 -57 -13 -80 -41 -40 -50 -52 -44 -52 25 0 33 5 63 10 66 6 3 10 17 10
30 0 29 26 45 74 45 20 0 54 7 76 16 32 13 40 21 40 43 0 14 3 43 6 64 5 29 3
37 -8 37 -9 0 -27 9 -41 20 -30 24 -60 26 -77 5 -10 -12 -16 -13 -28 -3 -12
10 -13 28 -8 92 8 99 11 105 50 90z m-6856 -495 c4 -20 -10 -51 -53 -119 -19
-30 -42 -68 -50 -85 -8 -16 -20 -39 -27 -49 -7 -11 -27 -43 -44 -71 -18 -28
-39 -57 -48 -64 -27 -22 -20 -44 12 -38 49 10 116 29 147 42 17 7 42 17 58 23
19 8 27 19 27 36 0 13 7 29 16 37 22 18 47 0 56 -42 15 -77 36 -151 47 -162 6
-6 11 -19 11 -28 0 -10 9 -34 21 -53 25 -43 22 -80 -7 -84 -11 -2 -40 -23 -64
-47 l-43 -44 17 -43 c31 -74 29 -73 90 -76 49 -3 56 -1 56 16 0 23 19 42 42
42 11 0 25 -16 38 -44 12 -24 30 -53 41 -64 27 -30 39 -66 39 -117 0 -42 -33
-144 -49 -155 -13 -8 -33 -79 -26 -90 10 -16 41 -11 60 10 10 11 23 20 30 20
21 0 43 34 47 70 3 30 7 35 28 35 17 0 26 -6 29 -20 2 -11 6 -22 10 -25 10 -8
51 -69 51 -75 0 -4 7 -13 15 -21 36 -36 2 -83 -35 -49 -18 16 -20 16 -52 -2
-18 -10 -41 -26 -51 -35 -11 -9 -32 -22 -48 -28 -16 -7 -29 -16 -29 -21 0 -5
-5 -9 -10 -9 -6 0 -23 -8 -38 -19 -15 -10 -57 -38 -94 -62 -64 -41 -68 -45
-68 -81 0 -27 -5 -41 -17 -45 -9 -4 -19 -1 -21 5 -2 7 -9 18 -16 25 -6 6 -17
25 -24 40 -6 15 -16 33 -22 40 -48 59 -60 77 -60 90 0 8 -7 20 -15 27 -24 20
-19 100 8 140 35 54 80 74 157 73 66 -1 67 -1 82 30 9 18 19 48 23 67 4 19 11
40 15 45 14 20 20 78 9 91 -13 15 -90 19 -105 5 -5 -5 -106 -12 -225 -15 -187
-6 -217 -5 -228 8 -7 8 -11 20 -9 25 1 6 87 95 191 199 103 104 187 195 187
202 0 8 -6 29 -12 48 -13 33 -14 34 -57 28 -25 -3 -59 -11 -76 -16 -16 -5 -57
-17 -90 -25 -33 -9 -76 -20 -95 -26 -19 -5 -44 -11 -55 -13 -11 -2 -33 -9 -48
-15 -34 -13 -107 -15 -107 -2 0 19 32 84 64 129 18 26 36 54 40 62 12 27 30
55 70 109 40 54 76 118 76 134 0 5 -10 6 -22 2 -13 -4 -31 -7 -40 -6 -10 0
-20 -4 -23 -9 -3 -5 -27 -12 -53 -16 -70 -10 -131 -39 -142 -68 -20 -53 -60
-38 -60 23 0 20 -7 47 -16 59 -30 44 8 99 40 58 9 -12 22 -13 66 -5 30 5 64
14 76 20 11 6 24 9 30 8 5 -1 18 1 29 5 49 19 74 26 130 36 33 6 69 15 80 20
49 22 108 22 113 -1z m6763 -91 c3 -52 22 -72 78 -83 18 -3 41 -10 50 -15 18
-10 98 -31 121 -32 8 0 20 -4 25 -8 6 -4 33 -11 60 -15 28 -4 56 -12 64 -18
10 -9 16 -7 27 8 16 22 19 125 4 125 -21 0 -9 30 14 36 18 4 34 -2 60 -23 40
-31 43 -41 21 -83 -9 -17 -13 -30 -10 -30 4 0 3 -6 -2 -12 -4 -7 -13 -35 -20
-63 -30 -128 -36 -151 -44 -160 -4 -6 -11 -30 -15 -54 -8 -50 -18 -56 -82 -45
-41 8 -47 12 -50 37 -3 21 1 27 16 27 24 0 43 21 58 66 11 31 10 36 -9 49 -12
8 -36 15 -54 15 -18 0 -33 4 -33 8 0 5 -6 9 -12 9 -7 1 -38 9 -68 17 -58 18
-157 43 -201 52 -20 5 -29 0 -43 -20 -9 -14 -23 -26 -31 -26 -23 0 -29 44 -11
78 9 17 16 38 16 46 0 8 8 40 17 71 12 40 22 55 35 55 10 0 18 -6 19 -12z
m-111 -396 c4 -24 14 -37 42 -52 21 -11 43 -20 50 -20 10 0 103 -39 183 -76
17 -8 45 -17 63 -20 18 -4 35 -11 38 -15 7 -12 51 -11 59 1 3 6 15 10 26 10
23 0 26 -39 7 -73 -7 -12 -20 -44 -29 -72 -12 -37 -22 -51 -38 -53 -17 -3 -21
2 -21 21 0 37 1 37 -195 107 -78 28 -91 33 -148 59 -59 26 -89 27 -105 1 -14
-23 -35 -26 -51 -6 -10 11 -6 27 17 73 16 32 33 74 37 93 8 35 31 62 50 56 6
-1 12 -17 15 -34z m58 -345 c15 -6 32 -15 37 -20 6 -4 30 -22 55 -41 56 -42
110 -143 110 -208 0 -127 -100 -267 -218 -302 -53 -15 -67 -16 -93 -6 -16 7
-32 10 -36 7 -10 -11 -119 53 -159 92 -43 42 -94 147 -94 193 0 70 42 166 96
219 65 63 133 91 212 84 34 -3 75 -11 90 -18z m-6138 -32 c0 -5 -5 -3 -10 5
-5 8 -10 20 -10 25 0 6 5 3 10 -5 5 -8 10 -19 10 -25z m5676 -418 c-7 -37 -1
-44 149 -172 117 -100 205 -189 205 -206 0 -34 -34 -39 -269 -39 -127 0 -231
-4 -231 -9 0 -4 24 -29 53 -55 28 -26 66 -60 83 -75 46 -42 73 -54 109 -48 62
10 65 -8 8 -65 -29 -30 -53 -59 -53 -66 0 -7 -8 -12 -17 -12 -13 0 -23 15 -33
47 -11 34 -26 54 -50 71 -45 29 -287 258 -300 282 -22 41 5 47 237 54 120 4
222 11 226 15 9 9 -82 93 -162 149 -31 23 -33 23 -52 6 -15 -14 -21 -14 -34
-4 -24 20 -18 38 33 100 37 46 53 59 76 59 27 1 28 -1 22 -32z m-5489 -224
c23 -26 43 -50 43 -54 0 -4 16 -24 35 -45 47 -50 43 -70 -12 -66 -46 4 -47 3
-158 -98 -39 -36 -89 -78 -110 -95 -21 -16 -62 -52 -91 -79 -51 -46 -54 -52
-54 -97 0 -42 -3 -49 -19 -49 -18 0 -33 16 -94 94 -12 16 -53 62 -90 102 -42
44 -67 79 -65 90 1 9 25 32 52 51 38 26 52 31 62 22 18 -15 18 -24 -1 -43 -18
-18 -9 -46 33 -95 l29 -35 60 50 c96 79 96 79 24 145 -62 58 -71 72 -48 83 6
3 26 15 42 26 46 30 55 34 66 23 6 -6 6 -19 1 -34 -7 -18 -4 -33 12 -61 32
-58 56 -52 151 36 l80 73 -12 35 c-30 82 -1 91 64 21z m4663 -48 c0 -2 -10
-10 -22 -16 -21 -11 -22 -11 -9 4 13 16 31 23 31 12z m-4114 -82 c26 -24 43
-47 40 -50 -3 -4 -16 3 -29 15 -13 12 -28 22 -33 22 -10 0 -45 34 -58 57 -14
26 37 -2 80 -44z m-57 -74 c31 -28 72 -66 92 -85 21 -19 40 -34 43 -34 4 0 31
-19 60 -42 105 -82 146 -113 157 -117 7 -2 20 -11 31 -20 48 -42 221 -135 511
-277 16 -8 33 -14 39 -14 5 0 24 -6 41 -14 18 -8 59 -24 92 -36 33 -12 72 -29
87 -36 14 -8 36 -14 47 -14 12 0 50 -10 84 -21 34 -12 73 -23 87 -25 66 -9
147 -25 165 -34 18 -8 74 -16 305 -39 109 -12 448 -12 565 -1 160 16 257 30
269 38 6 5 39 12 73 15 35 4 71 11 80 16 18 10 99 31 139 35 11 1 24 5 30 8 5
3 27 9 49 12 22 4 49 13 60 20 11 7 40 18 65 25 25 7 59 19 75 27 17 7 53 21
80 30 73 24 423 208 462 243 7 6 14 11 17 11 6 0 131 85 171 116 17 13 39 30
50 39 102 75 120 90 202 168 49 46 63 30 63 -67 -1 -131 -32 -200 -139 -304
-157 -154 -405 -255 -951 -387 -30 -7 -77 -20 -105 -28 -27 -8 -75 -21 -105
-30 -30 -8 -82 -25 -115 -37 -33 -11 -79 -25 -102 -30 -59 -14 -249 -100 -323
-148 -106 -67 -152 -111 -180 -169 -12 -27 -29 -61 -36 -76 -18 -37 -18 -87 0
-87 7 0 29 12 49 28 147 111 425 251 602 302 17 5 48 15 70 24 22 8 50 15 62
16 12 0 25 5 28 10 3 6 19 10 35 10 16 0 41 5 57 11 15 7 60 18 98 25 39 7
104 20 145 29 105 22 283 44 358 45 35 0 71 4 80 9 9 5 79 12 155 16 117 6
137 4 137 -8 0 -24 -47 -38 -207 -62 -50 -8 -125 -24 -165 -35 -40 -12 -104
-27 -143 -35 -68 -13 -99 -21 -255 -65 -114 -31 -127 -36 -235 -75 -55 -20
-112 -40 -127 -45 -15 -4 -40 -15 -55 -24 -15 -8 -50 -22 -78 -31 -27 -9 -55
-21 -62 -26 -19 -17 -86 -49 -100 -49 -7 0 -13 -4 -13 -8 0 -4 -21 -18 -47
-31 -26 -13 -64 -36 -84 -52 -20 -16 -41 -29 -46 -29 -19 0 -164 -143 -155
-152 10 -10 92 29 151 71 16 12 37 21 48 21 10 0 27 7 37 15 19 14 90 39 201
69 33 9 76 22 95 28 37 12 108 23 250 38 92 10 287 2 296 -11 3 -5 16 -9 28
-9 25 0 53 -25 39 -33 -5 -3 -46 -8 -93 -12 -47 -3 -96 -10 -110 -15 -14 -4
-50 -16 -80 -25 -97 -29 -324 -147 -361 -187 -9 -10 -20 -18 -24 -18 -9 0 -51
-33 -183 -143 -35 -28 -76 -61 -91 -72 -14 -11 -58 -46 -96 -78 -95 -79 -91
-77 -165 -125 -36 -23 -70 -42 -77 -42 -7 0 -13 -4 -13 -8 0 -4 -20 -15 -44
-24 -39 -14 -50 -15 -89 -3 -96 29 -200 100 -406 275 -41 36 -80 68 -86 72 -5
4 -37 30 -70 56 -33 27 -78 59 -100 72 -22 13 -42 27 -45 31 -12 18 -151 103
-225 138 -122 59 -237 91 -327 91 -54 0 -79 4 -88 15 -24 29 1 39 145 55 96
10 305 -2 395 -23 36 -9 103 -24 150 -35 47 -10 121 -35 164 -55 43 -21 83
-37 88 -37 4 0 44 -22 88 -50 148 -93 148 -46 0 71 -78 62 -233 158 -310 192
-143 64 -315 132 -395 155 -22 7 -82 26 -133 42 -52 17 -103 30 -113 30 -11 0
-48 10 -82 21 -34 12 -89 28 -122 35 -33 7 -89 21 -125 30 -36 9 -112 24 -170
34 -167 30 -191 36 -214 59 l-21 22 155 -6 c85 -4 162 -9 170 -13 8 -3 74 -12
145 -19 220 -23 350 -40 375 -50 14 -6 45 -14 175 -46 169 -42 291 -82 410
-137 225 -102 314 -153 415 -233 24 -20 48 -33 52 -31 13 8 9 77 -7 108 -8 15
-15 34 -15 42 0 16 -138 156 -173 176 -106 58 -163 85 -233 109 -45 15 -106
39 -135 52 -30 13 -74 27 -99 31 -24 4 -49 11 -55 15 -10 8 -30 14 -173 47
-35 7 -72 18 -82 24 -10 5 -30 10 -44 10 -14 0 -43 6 -63 14 -21 7 -72 23
-113 35 -105 31 -172 51 -195 61 -11 4 -49 18 -85 30 -36 12 -69 26 -75 30 -5
4 -26 11 -45 15 -83 18 -219 103 -339 213 -76 70 -89 87 -109 143 -38 109 -28
269 17 269 8 0 39 -23 70 -51z m1316 -599 l20 -9 -20 1 c-11 0 -31 4 -45 8
l-25 8 25 0 c14 0 34 -3 45 -8z"/>
<path d="M3057 10218 c-6 -41 -2 -48 29 -48 35 0 41 26 14 56 -31 32 -37 30
-43 -8z"/>
<path d="M4778 9318 c-86 -123 -210 -222 -361 -292 -186 -86 -300 -112 -647
-146 -245 -25 -314 -35 -420 -60 -84 -19 -196 -53 -235 -70 -348 -152 -541
-300 -743 -570 -128 -172 -207 -321 -260 -495 -39 -130 -40 -133 -56 -274 -12
-102 -12 -139 0 -252 14 -138 33 -204 86 -299 40 -72 61 -94 133 -138 59 -36
62 -37 160 -37 106 0 120 4 250 66 60 28 104 57 207 135 55 43 188 179 216
224 9 14 31 43 48 65 77 97 173 286 222 435 27 82 54 292 47 356 -13 112 -26
191 -37 224 -43 139 -55 168 -145 343 -8 15 -18 27 -23 27 -17 0 -16 -26 2
-61 17 -33 33 -82 59 -184 14 -51 14 -295 1 -360 -26 -128 -85 -325 -127 -420
-187 -430 -344 -663 -515 -766 -117 -69 -196 -83 -287 -50 -137 50 -212 157
-253 359 -67 328 54 735 332 1115 84 116 181 215 298 305 30 23 60 46 65 50
44 35 207 116 292 147 242 86 437 103 868 76 218 -14 418 -10 452 8 10 5 47
19 83 31 36 13 67 26 70 29 3 4 22 17 42 30 69 42 178 192 178 245 0 9 6 35
14 58 16 50 27 178 16 178 -5 0 -19 -15 -32 -32z m-14 -100 c-3 -31 -3 -30
-14 -23 -7 4 -7 13 0 26 14 25 17 24 14 -3z m-17 -60 c-3 -8 -6 -5 -6 6 -1 11
2 17 5 13 3 -3 4 -12 1 -19z m-42 2 c-3 -5 -11 -10 -16 -10 -6 0 -7 5 -4 10 3
6 11 10 16 10 6 0 7 -4 4 -10z m35 -30 c0 -5 -4 -10 -10 -10 -5 0 -10 5 -10
10 0 6 5 10 10 10 6 0 10 -4 10 -10z m-105 -31 c-4 -6 1 -16 11 -24 18 -13 17
-13 -9 -11 -36 4 -43 12 -27 31 14 17 35 21 25 4z m-65 -49 c-8 -5 -17 -7 -19
-4 -3 3 1 9 9 14 8 5 17 7 19 4 3 -3 -1 -9 -9 -14z m-35 -20 c-3 -5 -11 -10
-16 -10 -6 0 -7 5 -4 10 3 6 11 10 16 10 6 0 7 -4 4 -10z m154 -27 c-40 -68
-68 -92 -65 -56 0 9 11 27 24 39 12 13 22 30 22 39 0 9 9 15 21 15 21 0 21 0
-2 -37z m-89 -3 c11 -21 4 -25 -24 -14 -9 3 -16 12 -16 20 0 21 28 17 40 -6z
m-150 -4 c0 -2 -7 -7 -16 -10 -8 -3 -12 -2 -9 4 6 10 25 14 25 6z m32 -25 c-1
-8 8 -6 28 4 23 12 30 13 30 3 0 -19 -38 -40 -61 -33 -10 4 -19 15 -19 27 0
11 5 18 13 15 6 -2 11 -10 9 -16z m-54 -59 c2 -7 -7 -12 -22 -12 -27 0 -35 15
-13 23 17 7 30 3 35 -11z m-218 -28 c0 -2 -19 -4 -42 -4 -26 0 -38 4 -30 8 12
8 72 4 72 -4z m295 -14 c13 0 26 6 28 13 4 9 6 9 6 0 1 -19 -36 -34 -64 -27
-21 5 -23 9 -13 21 8 10 14 11 16 4 2 -6 14 -11 27 -11z m-295 -14 c0 -2 -7
-6 -15 -10 -8 -3 -15 -1 -15 4 0 6 7 10 15 10 8 0 15 -2 15 -4z m162 -28 c-6
-6 -26 -8 -48 -3 -47 8 -28 23 22 17 24 -3 32 -8 26 -14z m-315 6 c-3 -3 -12
-4 -19 -1 -8 3 -5 6 6 6 11 1 17 -2 13 -5z m388 -4 c-11 -5 -27 -9 -35 -9 -13
-1 -13 0 0 9 8 5 24 9 35 9 l20 0 -20 -9z m-492 -27 c-7 -2 -19 -2 -25 0 -7 3
-2 5 12 5 14 0 19 -2 13 -5z m-596 -615 c-3 -8 -6 -5 -6 6 -1 11 2 17 5 13 3
-3 4 -12 1 -19z m34 -195 c-9 -15 -10 -12 -10 17 0 29 1 32 10 18 7 -12 7 -24
0 -35z m-74 -155 c-2 -13 -4 -5 -4 17 -1 22 1 32 4 23 2 -10 2 -28 0 -40z
m-37 -74 c0 -8 -5 -12 -10 -9 -6 4 -8 11 -5 16 9 14 15 11 15 -7z m91 -41 c-9
-16 -10 -14 -11 12 0 21 3 26 11 18 8 -8 8 -16 0 -30z m-64 -15 c-3 -7 -5 -2
-5 12 0 14 2 19 5 13 2 -7 2 -19 0 -25z m38 -8 c-4 -6 -1 -18 7 -27 10 -13 10
-17 1 -20 -7 -3 -13 -15 -13 -28 0 -13 -4 -26 -9 -29 -4 -3 -6 5 -4 18 3 13 0
27 -6 30 -16 10 -13 26 5 26 8 0 12 5 9 10 -6 10 1 30 11 30 3 0 2 -5 -1 -10z
m-59 -37 c-11 -11 -19 6 -11 24 8 17 8 17 12 0 3 -10 2 -21 -1 -24z m-25 -46
c-8 -8 -11 -7 -11 4 0 20 13 34 18 19 3 -7 -1 -17 -7 -23z m-17 -77 c0 -29 -7
-57 -16 -67 -20 -23 -31 -70 -18 -78 5 -3 10 -12 10 -18 0 -7 -7 -3 -16 8 -14
19 -15 19 -20 -3 -4 -12 -10 -22 -15 -22 -12 0 -12 0 11 48 11 22 20 51 20 62
0 12 4 19 9 16 14 -9 19 15 16 73 -2 40 0 50 9 41 6 -6 11 -33 10 -60z m46 30
c0 -5 -4 -10 -10 -10 -5 0 -10 5 -10 10 0 6 5 10 10 10 6 0 10 -4 10 -10z m30
-36 c0 -8 -4 -14 -10 -14 -5 0 -10 9 -10 21 0 11 5 17 10 14 6 -3 10 -13 10
-21z m-167 -126 c-8 -24 -19 -48 -24 -54 -6 -8 -5 -13 4 -17 8 -3 17 -17 19
-32 8 -42 -25 -27 -36 16 -7 30 -5 45 14 83 29 58 42 60 23 4z m99 -20 c-9 -9
-12 -7 -12 12 0 19 3 21 12 12 9 -9 9 -15 0 -24z m-50 -80 c-7 -7 -12 -8 -12
-2 0 14 12 26 19 19 2 -3 -1 -11 -7 -17z m-97 -61 c0 -39 -19 -38 -23 2 -3 24
0 32 10 29 7 -3 13 -17 13 -31z m-45 -21 c0 -8 -4 -18 -10 -21 -5 -3 -10 3
-10 14 0 12 5 21 10 21 6 0 10 -6 10 -14z m-39 -79 c-8 -8 -11 -7 -11 4 0 20
13 34 18 19 3 -7 -1 -17 -7 -23z m49 19 c0 -3 -4 -8 -10 -11 -5 -3 -10 -1 -10
4 0 6 5 11 10 11 6 0 10 -2 10 -4z m-71 -52 c-15 -18 -22 -13 -13 10 3 9 10
13 16 10 5 -3 4 -12 -3 -20z m38 4 c-3 -8 -6 -5 -6 6 -1 11 2 17 5 13 3 -3 4
-12 1 -19z m51 10 c-2 -6 -10 -14 -16 -16 -7 -2 -10 2 -6 12 7 18 28 22 22 4z
m-98 -62 c0 -3 -4 -8 -10 -11 -5 -3 -10 -1 -10 4 0 6 5 11 10 11 6 0 10 -2 10
-4z m0 -55 c0 -11 -31 -24 -39 -16 -3 3 1 10 9 15 19 12 30 12 30 1z m-60 -56
c-7 -9 -15 -13 -18 -10 -3 2 1 11 8 20 7 9 15 13 18 10 3 -2 -1 -11 -8 -20z
m-60 -44 c0 -5 -7 -11 -15 -15 -9 -3 -15 0 -15 9 0 8 7 15 15 15 8 0 15 -4 15
-9z m-55 -51 c-3 -5 -16 -15 -28 -21 -22 -12 -22 -12 -3 10 19 21 43 30 31 11z"/>
<path d="M4309 8618 c-76 -85 -223 -266 -259 -319 -152 -221 -224 -339 -300
-494 -84 -169 -170 -372 -170 -399 0 -14 -21 -36 -79 -86 -47 -40 -283 -271
-322 -315 -44 -49 -161 -209 -202 -275 -45 -71 -117 -223 -140 -295 -45 -139
-63 -329 -44 -463 16 -109 21 -122 38 -105 7 7 7 24 0 54 -17 71 -13 226 9
340 34 183 71 280 174 459 50 85 116 186 158 237 60 73 349 353 365 353 7 0
-1 -38 -27 -130 -32 -113 -47 -167 -69 -250 -11 -41 -30 -109 -41 -150 -12
-41 -26 -93 -31 -115 -51 -208 -194 -535 -288 -660 -65 -86 -136 -156 -247
-245 -95 -76 -286 -162 -434 -196 -89 -21 -210 -23 -263 -5 -70 24 -125 100
-100 139 5 9 40 26 78 39 110 37 153 95 142 190 -4 35 -13 54 -40 80 -67 68
-175 51 -252 -40 -125 -146 -52 -385 133 -440 213 -62 646 83 942 316 8 7 35
28 60 47 118 92 262 252 364 405 186 279 319 602 386 940 10 50 22 110 28 135
5 25 13 78 17 118 l6 73 131 128 c133 131 153 141 130 63 -6 -20 -16 -74 -21
-120 -6 -46 -13 -87 -15 -91 -3 -4 -10 -48 -16 -97 -6 -49 -15 -102 -20 -119
-40 -140 -63 -205 -75 -215 -14 -12 -21 -40 -10 -40 12 0 123 96 166 143 26
27 65 86 88 129 38 75 41 85 41 161 -1 65 -7 99 -31 167 -64 178 -62 205 15
330 73 116 87 147 93 205 4 40 2 54 -12 65 -14 12 -20 12 -43 -2 -35 -21 -64
-83 -87 -183 -44 -196 -42 -193 -215 -363 -69 -67 -96 -88 -98 -76 -8 38 53
269 115 434 67 176 139 303 275 482 48 65 88 120 88 123 0 21 -37 -6 -91 -67z
m-249 -393 c0 -14 -7 -28 -15 -31 -9 -4 -15 -19 -15 -35 0 -16 -4 -29 -10 -29
-15 0 -12 31 5 64 8 15 15 35 15 42 0 8 5 14 10 14 6 0 10 -11 10 -25z m287
-7 c-3 -8 -6 -5 -6 6 -1 11 2 17 5 13 3 -3 4 -12 1 -19z m-7 -45 c0 -22 -8
-14 -19 20 -10 29 -9 30 4 13 8 -11 15 -26 15 -33z m-50 -92 c0 -10 -6 -23
-13 -29 -10 -9 -12 -4 -9 23 4 35 22 39 22 6z m-347 -69 c15 -19 0 -27 -18 -9
-16 17 -20 39 -7 51 4 4 9 0 11 -11 2 -10 8 -24 14 -31z m-43 -32 c0 -5 -4
-10 -10 -10 -5 0 -10 -7 -10 -17 0 -9 -3 -14 -6 -10 -8 8 5 47 17 47 5 0 9 -4
9 -10z m-60 -105 c-24 -47 -24 -52 -5 -89 21 -41 19 -54 -9 -49 -19 4 -25 -1
-34 -26 -6 -17 -16 -31 -21 -31 -18 0 -15 14 17 76 6 12 8 31 6 41 -3 11 1 26
8 34 8 8 20 34 27 58 7 26 16 40 22 34 5 -5 1 -24 -11 -48z m83 30 c-7 -21
-13 -19 -13 6 0 11 4 18 10 14 5 -3 7 -12 3 -20z m-60 -45 c3 -11 1 -23 -4
-26 -5 -3 -9 6 -9 20 0 31 6 34 13 6z m37 6 c0 -8 -4 -18 -10 -21 -5 -3 -10 3
-10 14 0 12 5 21 10 21 6 0 10 -6 10 -14z m14 -91 c-5 -26 -10 -33 -17 -26 -8
8 -8 14 1 23 7 7 12 21 12 32 0 10 3 17 6 14 3 -3 2 -23 -2 -43z m-40 -85 c-5
-30 -9 -38 -15 -27 -5 8 -4 28 2 46 15 43 21 33 13 -19z m346 13 c0 -22 -17
-50 -25 -42 -6 7 11 59 20 59 3 0 5 -8 5 -17z m-483 -35 c-3 -7 -5 -2 -5 12 0
14 2 19 5 13 2 -7 2 -19 0 -25z m481 -58 c-14 -32 -28 -40 -28 -14 0 19 34 66
38 53 2 -5 -2 -23 -10 -39z m-478 20 c0 -11 -4 -20 -10 -20 -5 0 -10 -6 -10
-12 0 -7 -12 -21 -25 -31 -27 -19 -31 -17 -15 11 5 9 14 29 20 45 11 31 40 37
40 7z m146 -42 c-9 -19 -24 -38 -35 -41 -19 -5 -19 -4 -3 32 17 37 45 66 50
52 1 -4 -4 -23 -12 -43z m-73 27 c4 -8 2 -17 -3 -20 -6 -4 -10 3 -10 14 0 25
6 27 13 6z m452 -79 c4 -40 2 -72 -4 -85 -6 -11 -8 -27 -5 -35 8 -20 -3 -21
-22 -1 -9 8 -12 20 -8 27 15 24 22 92 11 108 -5 10 -7 25 -4 34 13 33 25 14
32 -48z m-527 1 c2 -19 -1 -27 -12 -27 -11 0 -16 10 -16 31 0 38 24 35 28 -4z
m82 -3 c0 -8 -4 -14 -9 -14 -11 0 -25 -102 -23 -177 1 -35 -2 -63 -7 -63 -14
0 -22 102 -11 140 5 19 10 47 10 62 0 37 18 81 30 73 5 -3 10 -13 10 -21z
m375 -3 c-3 -12 -11 -21 -16 -21 -6 0 -8 3 -6 8 2 4 7 16 11 26 9 25 20 13 11
-13z m-515 -27 c0 -8 -4 -14 -10 -14 -5 0 -10 9 -10 21 0 11 5 17 10 14 6 -3
10 -13 10 -21z m170 -26 c0 -49 -5 -47 -14 5 -4 23 -3 37 4 37 5 0 10 -19 10
-42z m-142 -45 c-3 -39 -29 -56 -50 -35 -15 15 13 72 35 72 15 0 18 -7 15 -37z
m458 -37 c-8 -32 3 -59 21 -51 11 3 13 1 10 -10 -4 -8 -2 -17 4 -20 5 -4 7
-11 3 -16 -3 -6 -14 -1 -24 11 -22 25 -30 25 -30 0 0 -11 -4 -20 -9 -20 -5 0
-12 -10 -16 -22 -6 -21 -8 -21 -12 -4 -3 10 0 23 6 29 6 6 11 19 11 29 0 10 5
18 10 18 6 0 10 11 10 24 0 26 9 56 17 56 3 0 2 -11 -1 -24z m60 -11 c4 -14 4
-29 0 -32 -3 -4 -6 3 -6 13 0 11 -5 25 -12 32 -9 9 -9 12 0 12 6 0 14 -11 18
-25z m-604 -62 c2 -24 0 -43 -5 -43 -4 0 -5 -4 -2 -10 3 -5 1 -10 -4 -10 -6 0
-11 13 -11 28 0 20 -7 32 -22 40 l-23 11 23 0 c16 1 22 7 22 23 0 38 18 6 22
-39z m-32 -97 c-7 -7 -10 -5 -10 5 0 7 -3 25 -6 39 -5 23 -5 23 10 -4 11 -20
13 -33 6 -40z m158 42 c14 -14 16 -108 2 -108 -5 0 -10 -9 -10 -20 0 -11 -4
-20 -10 -20 -13 0 -13 15 1 64 8 27 8 41 0 49 -13 13 -15 47 -3 47 4 0 13 -5
20 -12z m398 -36 c-12 -11 -18 7 -10 30 l8 23 4 -23 c2 -13 1 -26 -2 -30z
m-337 -62 c-1 -21 -2 -21 -6 -5 -3 11 -9 25 -14 31 -5 6 -6 14 -2 18 10 10 23
-16 22 -44z m-242 18 c-3 -8 -6 -5 -6 6 -1 11 2 17 5 13 3 -3 4 -12 1 -19z
m39 -66 c-12 -11 -15 5 -8 48 l7 45 3 -44 c2 -23 1 -46 -2 -49z m509 78 c-3
-5 -11 -10 -16 -10 -6 0 -7 5 -4 10 3 6 11 10 16 10 6 0 7 -4 4 -10z m-338
-42 c-3 -8 -6 -5 -6 6 -1 11 2 17 5 13 3 -3 4 -12 1 -19z m-2 -116 c-9 -10
-25 20 -25 49 0 44 15 43 23 -1 5 -23 6 -45 2 -48z m-258 16 c-2 -13 -4 -3 -4
22 0 25 2 35 4 23 2 -13 2 -33 0 -45z m251 -52 c3 -12 -1 -17 -10 -14 -7 3
-15 13 -16 22 -3 12 1 17 10 14 7 -3 15 -13 16 -22z m-254 -2 c9 -24 7 -28 -9
-14 -17 14 -20 30 -6 30 5 0 12 -7 15 -16z m-6 -139 c2 -60 -1 -77 -14 -82
-23 -9 -28 4 -9 23 11 12 15 27 12 48 -18 111 -19 122 -4 104 9 -11 14 -45 15
-93z m172 16 c0 -11 5 -23 10 -26 6 -3 10 -19 10 -36 0 -16 -4 -29 -10 -29 -5
0 -10 12 -10 28 0 34 -14 57 -29 48 -15 -9 -14 7 1 22 17 17 28 15 28 -7z m50
9 c0 -5 -4 -10 -10 -10 -5 0 -10 5 -10 10 0 6 5 10 10 10 6 0 10 -4 10 -10z
m-130 -23 c0 -30 -23 -127 -31 -127 -17 0 -20 78 -4 109 16 32 35 41 35 18z
m-125 -16 c3 -5 1 -12 -5 -16 -5 -3 -10 1 -10 9 0 18 6 21 15 7z m42 -103 c-3
-7 -5 -2 -5 12 0 14 2 19 5 13 2 -7 2 -19 0 -25z m163 28 c0 -3 -4 -8 -10 -11
-5 -3 -10 -1 -10 4 0 6 5 11 10 11 6 0 10 -2 10 -4z m-35 -85 c-15 -15 -16
-14 -9 14 10 44 18 53 22 26 2 -13 -4 -31 -13 -40z m-193 17 c-9 -9 -12 -7
-12 12 0 19 3 21 12 12 9 -9 9 -15 0 -24z m13 -39 c11 -16 22 -119 15 -124
-10 -6 -27 40 -35 93 -6 40 5 57 20 31z m133 -1 c19 -19 14 -25 -18 -20 -29 4
-37 12 -23 25 10 11 28 8 41 -5z m-198 -92 c0 -20 -8 -40 -20 -51 -19 -17 -20
-17 -20 1 0 34 21 95 31 89 5 -4 9 -21 9 -39z m142 -18 c-7 -7 -12 -8 -12 -2
0 14 12 26 19 19 2 -3 -1 -11 -7 -17z m-1 -48 c5 0 9 -8 9 -17 -1 -16 -2 -16
-15 1 -8 11 -14 27 -14 35 1 13 2 12 6 -1 2 -10 9 -18 14 -18z m-110 -7 c0 -5
2 -25 5 -45 4 -31 2 -36 -11 -32 -9 4 -18 -1 -22 -12 -6 -15 -7 -14 -15 6 -6
18 -5 26 7 32 8 5 15 20 15 33 0 22 19 37 21 18z m68 -104 c-19 -12 -24 -2 -8
17 9 11 14 13 17 4 3 -7 -2 -16 -9 -21z m-141 -22 c2 -17 -2 -26 -8 -22 -5 3
-10 13 -10 21 0 8 -4 14 -10 14 -5 0 -10 4 -10 8 0 4 8 8 18 8 13 0 19 -9 20
-29z m112 -14 c-1 -5 -12 -21 -25 -38 -25 -30 -25 -30 -25 -6 0 13 8 30 18 37
19 15 32 18 32 7z m-73 -98 c-7 -14 -18 -25 -24 -25 -17 0 -16 10 4 32 23 26
33 22 20 -7z m-104 -52 c-7 -17 -23 -17 -23 0 0 6 -3 23 -6 37 l-6 25 20 -24
c11 -14 18 -31 15 -38z m67 -9 c0 -10 -33 -33 -47 -34 -21 0 -15 14 10 26 27
14 37 16 37 8z m-75 -50 c-7 -40 -25 -74 -39 -74 -4 0 -6 9 -3 21 3 12 0 22
-9 26 -8 3 -14 14 -14 24 0 23 15 25 24 4 7 -20 36 -8 36 16 0 10 3 19 6 19 3
0 3 -16 -1 -36z m-90 -54 c-5 -22 -3 -32 9 -36 16 -6 22 -24 9 -24 -5 1 -18 9
-30 19 -20 16 -21 22 -10 45 16 35 30 33 22 -4z m-45 -70 c-6 -11 -15 -18 -21
-14 -6 4 -6 11 2 20 17 21 31 17 19 -6z m30 -27 c0 -5 -15 -20 -33 -34 l-32
-26 -2 31 c0 17 1 25 4 19 7 -18 33 -16 33 2 0 8 7 15 15 15 8 0 15 -3 15 -7z
m-1080 -23 c0 -5 -7 -10 -16 -10 -8 0 -12 5 -9 10 3 6 10 10 16 10 5 0 9 -4 9
-10z m-15 -50 c3 -5 1 -10 -4 -10 -6 0 -11 5 -11 10 0 6 2 10 4 10 3 0 8 -4
11 -10z m155 -11 c0 -5 -7 -9 -15 -9 -9 0 -12 6 -9 15 6 15 24 11 24 -6z
m-250 -24 c0 -24 -6 -39 -20 -47 -11 -7 -20 -23 -20 -35 0 -13 -4 -23 -10 -23
-5 0 -10 9 -10 19 0 11 5 23 10 26 6 3 10 14 10 24 0 21 22 71 33 71 4 0 7
-16 7 -35z m59 -94 c9 -6 10 -10 2 -16 -16 -9 -44 2 -36 15 8 12 16 12 34 1z
m101 -11 c0 -9 -41 -30 -58 -30 -9 1 41 39 51 40 4 0 7 -5 7 -10z m-73 -26
c-3 -3 -12 -4 -19 -1 -8 3 -5 6 6 6 11 1 17 -2 13 -5z m-117 -45 c0 -10 -4
-19 -10 -19 -5 0 -10 12 -10 26 0 14 4 23 10 19 6 -3 10 -15 10 -26z m46 -3
c9 -24 -8 -44 -31 -35 -11 4 -14 8 -7 8 6 1 12 10 12 21 0 23 18 27 26 6z"/>
<path d="M6676 7912 c-174 -227 -476 -371 -861 -412 -55 -6 -116 -12 -135 -14
-19 -3 -88 -9 -154 -15 -332 -30 -631 -133 -886 -303 -96 -65 -116 -82 -223
-185 -340 -329 -536 -783 -513 -1190 15 -272 96 -442 248 -523 58 -31 70 -34
148 -34 81 1 137 15 230 57 142 64 349 235 450 372 25 33 47 62 51 65 16 15
75 110 123 201 126 240 171 443 148 683 -10 100 -35 214 -62 281 -33 83 -123
254 -135 259 -22 8 -30 -20 -13 -47 40 -61 88 -272 88 -386 0 -51 -34 -264
-50 -316 -5 -16 -23 -75 -41 -130 -17 -55 -40 -120 -51 -144 -10 -24 -28 -67
-39 -95 -54 -138 -238 -465 -293 -522 -6 -6 -29 -31 -52 -56 -63 -68 -133
-123 -201 -157 -56 -28 -72 -31 -145 -30 -103 1 -115 5 -182 53 -98 72 -156
203 -177 398 -12 110 -1 282 22 373 6 22 16 63 23 90 7 28 15 57 19 65 3 8 17
44 30 80 32 85 137 294 157 310 3 3 27 38 54 78 26 40 57 85 69 100 164 197
297 310 467 397 41 21 80 41 85 45 6 4 62 24 125 44 101 32 231 60 340 72 76
8 439 4 510 -7 100 -14 388 -6 465 13 214 54 359 202 395 403 13 73 22 185 15
185 -2 0 -24 -26 -49 -58z"/>
<path d="M6223 7232 c-33 -37 -68 -78 -79 -90 -10 -13 -26 -33 -36 -43 -111
-132 -291 -385 -367 -516 -81 -141 -189 -372 -255 -550 -28 -75 -68 -121 -186
-218 -123 -101 -388 -409 -451 -524 -10 -20 -24 -43 -29 -51 -28 -43 -103
-220 -127 -302 -26 -88 -28 -104 -28 -288 0 -198 6 -250 28 -250 9 0 12 50 12
207 0 187 3 216 23 288 97 335 303 648 587 891 112 96 109 94 103 59 -7 -42
-78 -304 -139 -515 -10 -36 -21 -78 -24 -95 -4 -16 -10 -39 -15 -50 -4 -11
-21 -60 -36 -110 -34 -111 -116 -307 -168 -399 -153 -272 -407 -471 -716 -562
-129 -39 -281 -41 -352 -6 -31 15 -51 34 -62 56 -14 29 -22 76 -13 76 17 0
158 67 176 83 66 61 68 184 3 238 -62 53 -151 44 -225 -21 -97 -85 -123 -211
-68 -326 50 -107 123 -157 242 -170 62 -6 236 10 268 26 9 4 61 22 117 39 311
100 604 303 818 566 45 55 93 116 108 136 76 103 230 386 258 474 7 22 18 51
25 65 14 29 44 122 74 230 12 41 26 89 31 105 13 41 39 179 57 305 22 154 21
151 65 190 23 19 80 74 127 123 48 48 90 87 95 87 5 0 5 -10 1 -22 -4 -13 -15
-79 -26 -148 -53 -358 -72 -440 -133 -555 -8 -16 -13 -31 -11 -33 8 -8 114 79
166 136 100 109 149 205 149 290 0 48 -27 191 -40 207 -4 6 -18 45 -30 88 -28
93 -25 107 51 233 94 158 116 226 86 269 -20 27 -62 12 -91 -33 -15 -21 -36
-83 -51 -147 -40 -174 -42 -178 -108 -256 -79 -91 -195 -201 -207 -194 -4 3
-2 31 6 63 8 31 18 78 24 104 19 94 68 239 117 346 18 39 33 74 33 77 0 3 19
38 41 78 23 40 47 81 53 92 17 32 105 154 158 220 26 33 48 65 48 72 0 31 -23
18 -77 -45z"/>
<path d="M7525 8699 c-95 -47 -154 -135 -151 -227 2 -42 7 -57 31 -82 26 -27
35 -30 91 -30 48 0 75 6 120 29 74 36 94 54 127 112 20 34 27 59 27 98 0 47
-4 57 -34 87 -32 32 -38 34 -102 34 -48 -1 -81 -7 -109 -21z"/>
<path d="M891 7820 c-30 -17 -62 -30 -72 -30 -9 0 -19 -6 -22 -14 -3 -8 -24
-17 -46 -21 -23 -4 -41 -10 -41 -15 0 -21 14 -40 29 -40 9 0 25 -7 35 -15 11
-8 41 -15 67 -15 54 0 98 29 118 79 14 32 11 93 -4 98 -5 1 -34 -11 -64 -27z"/>
<path d="M7893 6773 l-33 -4 0 -79 c0 -69 3 -82 25 -109 39 -46 101 -65 191
-58 79 6 101 16 151 66 33 33 42 59 50 139 l5 52 -179 -2 c-98 0 -193 -3 -210
-5z"/>
<path d="M8000 6115 c0 -30 3 -35 23 -35 23 0 67 25 57 32 -20 16 -61 38 -70
38 -5 0 -10 -16 -10 -35z"/>
<path d="M910 5060 c-45 -43 -47 -61 -5 -42 14 7 37 12 50 12 28 0 31 13 11
48 l-13 24 -43 -42z"/>
<path d="M1090 4613 c-29 -11 -70 -57 -70 -79 0 -13 5 -34 12 -48 l11 -26 56
32 c31 18 61 36 66 40 6 5 19 15 29 22 19 13 19 15 3 40 -14 21 -25 26 -55 25
-20 0 -44 -3 -52 -6z"/>
<path d="M7445 4963 c-73 -18 -113 -145 -65 -206 11 -14 20 -30 20 -36 0 -6 4
-11 9 -11 5 0 16 -6 23 -13 24 -24 128 -67 161 -67 18 0 47 0 66 1 45 0 88 24
111 62 21 34 20 104 -3 159 -12 28 -91 81 -154 104 -37 13 -128 17 -168 7z"/>
</g>
</svg>
